<mxfile host="app.diagrams.net" agent="Mozilla/5.0 (Windows NT 10.0; Win64; x64) AppleWebKit/537.36 (KHTML, like Gecko) Chrome/131.0.0.0 Safari/537.36" version="25.0.1">
  <diagram name="Page-1" id="ttafwq1xsi_IYxlI1mk_">
    <mxGraphModel dx="2150" dy="942" grid="1" gridSize="10" guides="1" tooltips="1" connect="1" arrows="1" fold="1" page="1" pageScale="1" pageWidth="850" pageHeight="1100" math="0" shadow="0">
      <root>
        <mxCell id="0" />
        <mxCell id="1" parent="0" />
        <mxCell id="BI7n9oEjIv4drbfOqCoB-1" value="Museum" style="swimlane;fontStyle=0;align=center;verticalAlign=top;childLayout=stackLayout;horizontal=1;startSize=26;horizontalStack=0;resizeParent=1;resizeLast=0;collapsible=1;marginBottom=0;rounded=0;shadow=0;strokeWidth=1;" vertex="1" parent="1">
          <mxGeometry x="442" y="760" width="160" height="182" as="geometry">
            <mxRectangle x="130" y="380" width="160" height="26" as="alternateBounds" />
          </mxGeometry>
        </mxCell>
        <mxCell id="BI7n9oEjIv4drbfOqCoB-2" value="museum_ID {PK}" style="text;align=left;verticalAlign=top;spacingLeft=4;spacingRight=4;overflow=hidden;rotatable=0;points=[[0,0.5],[1,0.5]];portConstraint=eastwest;" vertex="1" parent="BI7n9oEjIv4drbfOqCoB-1">
          <mxGeometry y="26" width="160" height="26" as="geometry" />
        </mxCell>
        <mxCell id="BI7n9oEjIv4drbfOqCoB-3" value="museum_name" style="text;align=left;verticalAlign=top;spacingLeft=4;spacingRight=4;overflow=hidden;rotatable=0;points=[[0,0.5],[1,0.5]];portConstraint=eastwest;" vertex="1" parent="BI7n9oEjIv4drbfOqCoB-1">
          <mxGeometry y="52" width="160" height="26" as="geometry" />
        </mxCell>
        <mxCell id="BI7n9oEjIv4drbfOqCoB-4" value="description" style="text;align=left;verticalAlign=top;spacingLeft=4;spacingRight=4;overflow=hidden;rotatable=0;points=[[0,0.5],[1,0.5]];portConstraint=eastwest;" vertex="1" parent="BI7n9oEjIv4drbfOqCoB-1">
          <mxGeometry y="78" width="160" height="26" as="geometry" />
        </mxCell>
        <mxCell id="BI7n9oEjIv4drbfOqCoB-5" value="address" style="text;align=left;verticalAlign=top;spacingLeft=4;spacingRight=4;overflow=hidden;rotatable=0;points=[[0,0.5],[1,0.5]];portConstraint=eastwest;" vertex="1" parent="BI7n9oEjIv4drbfOqCoB-1">
          <mxGeometry y="104" width="160" height="26" as="geometry" />
        </mxCell>
        <mxCell id="BI7n9oEjIv4drbfOqCoB-6" value="phone" style="text;align=left;verticalAlign=top;spacingLeft=4;spacingRight=4;overflow=hidden;rotatable=0;points=[[0,0.5],[1,0.5]];portConstraint=eastwest;" vertex="1" parent="BI7n9oEjIv4drbfOqCoB-1">
          <mxGeometry y="130" width="160" height="26" as="geometry" />
        </mxCell>
        <mxCell id="BI7n9oEjIv4drbfOqCoB-7" value="contactname" style="text;align=left;verticalAlign=top;spacingLeft=4;spacingRight=4;overflow=hidden;rotatable=0;points=[[0,0.5],[1,0.5]];portConstraint=eastwest;" vertex="1" parent="BI7n9oEjIv4drbfOqCoB-1">
          <mxGeometry y="156" width="160" height="26" as="geometry" />
        </mxCell>
        <mxCell id="BI7n9oEjIv4drbfOqCoB-8" value="ArtObject" style="swimlane;fontStyle=0;align=center;verticalAlign=top;childLayout=stackLayout;horizontal=1;startSize=26;horizontalStack=0;resizeParent=1;resizeLast=0;collapsible=1;marginBottom=0;rounded=0;shadow=0;strokeWidth=1;" vertex="1" parent="1">
          <mxGeometry x="682" y="280" width="160" height="390" as="geometry">
            <mxRectangle x="130" y="380" width="160" height="26" as="alternateBounds" />
          </mxGeometry>
        </mxCell>
        <mxCell id="BI7n9oEjIv4drbfOqCoB-9" value="artobject_ID {PK}" style="text;align=left;verticalAlign=top;spacingLeft=4;spacingRight=4;overflow=hidden;rotatable=0;points=[[0,0.5],[1,0.5]];portConstraint=eastwest;" vertex="1" parent="BI7n9oEjIv4drbfOqCoB-8">
          <mxGeometry y="26" width="160" height="26" as="geometry" />
        </mxCell>
        <mxCell id="BI7n9oEjIv4drbfOqCoB-10" value="artist_ID {FK}" style="text;align=left;verticalAlign=top;spacingLeft=4;spacingRight=4;overflow=hidden;rotatable=0;points=[[0,0.5],[1,0.5]];portConstraint=eastwest;" vertex="1" parent="BI7n9oEjIv4drbfOqCoB-8">
          <mxGeometry y="52" width="160" height="26" as="geometry" />
        </mxCell>
        <mxCell id="BI7n9oEjIv4drbfOqCoB-11" value="year_creation" style="text;align=left;verticalAlign=top;spacingLeft=4;spacingRight=4;overflow=hidden;rotatable=0;points=[[0,0.5],[1,0.5]];portConstraint=eastwest;" vertex="1" parent="BI7n9oEjIv4drbfOqCoB-8">
          <mxGeometry y="78" width="160" height="26" as="geometry" />
        </mxCell>
        <mxCell id="BI7n9oEjIv4drbfOqCoB-12" value="title" style="text;align=left;verticalAlign=top;spacingLeft=4;spacingRight=4;overflow=hidden;rotatable=0;points=[[0,0.5],[1,0.5]];portConstraint=eastwest;" vertex="1" parent="BI7n9oEjIv4drbfOqCoB-8">
          <mxGeometry y="104" width="160" height="26" as="geometry" />
        </mxCell>
        <mxCell id="BI7n9oEjIv4drbfOqCoB-13" value="description" style="text;align=left;verticalAlign=top;spacingLeft=4;spacingRight=4;overflow=hidden;rotatable=0;points=[[0,0.5],[1,0.5]];portConstraint=eastwest;" vertex="1" parent="BI7n9oEjIv4drbfOqCoB-8">
          <mxGeometry y="130" width="160" height="26" as="geometry" />
        </mxCell>
        <mxCell id="BI7n9oEjIv4drbfOqCoB-14" value="origin" style="text;align=left;verticalAlign=top;spacingLeft=4;spacingRight=4;overflow=hidden;rotatable=0;points=[[0,0.5],[1,0.5]];portConstraint=eastwest;" vertex="1" parent="BI7n9oEjIv4drbfOqCoB-8">
          <mxGeometry y="156" width="160" height="26" as="geometry" />
        </mxCell>
        <mxCell id="BI7n9oEjIv4drbfOqCoB-15" value="epoch" style="text;align=left;verticalAlign=top;spacingLeft=4;spacingRight=4;overflow=hidden;rotatable=0;points=[[0,0.5],[1,0.5]];portConstraint=eastwest;" vertex="1" parent="BI7n9oEjIv4drbfOqCoB-8">
          <mxGeometry y="182" width="160" height="26" as="geometry" />
        </mxCell>
        <mxCell id="BI7n9oEjIv4drbfOqCoB-16" value="category" style="text;align=left;verticalAlign=top;spacingLeft=4;spacingRight=4;overflow=hidden;rotatable=0;points=[[0,0.5],[1,0.5]];portConstraint=eastwest;" vertex="1" parent="BI7n9oEjIv4drbfOqCoB-8">
          <mxGeometry y="208" width="160" height="26" as="geometry" />
        </mxCell>
        <mxCell id="BI7n9oEjIv4drbfOqCoB-17" value="date_acquired" style="text;align=left;verticalAlign=top;spacingLeft=4;spacingRight=4;overflow=hidden;rotatable=0;points=[[0,0.5],[1,0.5]];portConstraint=eastwest;" vertex="1" parent="BI7n9oEjIv4drbfOqCoB-8">
          <mxGeometry y="234" width="160" height="26" as="geometry" />
        </mxCell>
        <mxCell id="BI7n9oEjIv4drbfOqCoB-18" value="status" style="text;align=left;verticalAlign=top;spacingLeft=4;spacingRight=4;overflow=hidden;rotatable=0;points=[[0,0.5],[1,0.5]];portConstraint=eastwest;" vertex="1" parent="BI7n9oEjIv4drbfOqCoB-8">
          <mxGeometry y="260" width="160" height="26" as="geometry" />
        </mxCell>
        <mxCell id="BI7n9oEjIv4drbfOqCoB-19" value="cost" style="text;align=left;verticalAlign=top;spacingLeft=4;spacingRight=4;overflow=hidden;rotatable=0;points=[[0,0.5],[1,0.5]];portConstraint=eastwest;" vertex="1" parent="BI7n9oEjIv4drbfOqCoB-8">
          <mxGeometry y="286" width="160" height="26" as="geometry" />
        </mxCell>
        <mxCell id="BI7n9oEjIv4drbfOqCoB-20" value="museum_ID {FK}" style="text;align=left;verticalAlign=top;spacingLeft=4;spacingRight=4;overflow=hidden;rotatable=0;points=[[0,0.5],[1,0.5]];portConstraint=eastwest;" vertex="1" parent="BI7n9oEjIv4drbfOqCoB-8">
          <mxGeometry y="312" width="160" height="26" as="geometry" />
        </mxCell>
        <mxCell id="BI7n9oEjIv4drbfOqCoB-21" value="date_borrowed" style="text;align=left;verticalAlign=top;spacingLeft=4;spacingRight=4;overflow=hidden;rotatable=0;points=[[0,0.5],[1,0.5]];portConstraint=eastwest;" vertex="1" parent="BI7n9oEjIv4drbfOqCoB-8">
          <mxGeometry y="338" width="160" height="26" as="geometry" />
        </mxCell>
        <mxCell id="BI7n9oEjIv4drbfOqCoB-22" value="date_returned" style="text;align=left;verticalAlign=top;spacingLeft=4;spacingRight=4;overflow=hidden;rotatable=0;points=[[0,0.5],[1,0.5]];portConstraint=eastwest;" vertex="1" parent="BI7n9oEjIv4drbfOqCoB-8">
          <mxGeometry y="364" width="160" height="26" as="geometry" />
        </mxCell>
        <mxCell id="BI7n9oEjIv4drbfOqCoB-23" value="Artist" style="swimlane;fontStyle=0;align=center;verticalAlign=top;childLayout=stackLayout;horizontal=1;startSize=26;horizontalStack=0;resizeParent=1;resizeLast=0;collapsible=1;marginBottom=0;rounded=0;shadow=0;strokeWidth=1;" vertex="1" parent="1">
          <mxGeometry x="402" y="80" width="160" height="234" as="geometry">
            <mxRectangle x="130" y="380" width="160" height="26" as="alternateBounds" />
          </mxGeometry>
        </mxCell>
        <mxCell id="BI7n9oEjIv4drbfOqCoB-24" value="artist_ID {PK}" style="text;align=left;verticalAlign=top;spacingLeft=4;spacingRight=4;overflow=hidden;rotatable=0;points=[[0,0.5],[1,0.5]];portConstraint=eastwest;" vertex="1" parent="BI7n9oEjIv4drbfOqCoB-23">
          <mxGeometry y="26" width="160" height="26" as="geometry" />
        </mxCell>
        <mxCell id="BI7n9oEjIv4drbfOqCoB-25" value="artist_name" style="text;align=left;verticalAlign=top;spacingLeft=4;spacingRight=4;overflow=hidden;rotatable=0;points=[[0,0.5],[1,0.5]];portConstraint=eastwest;" vertex="1" parent="BI7n9oEjIv4drbfOqCoB-23">
          <mxGeometry y="52" width="160" height="26" as="geometry" />
        </mxCell>
        <mxCell id="BI7n9oEjIv4drbfOqCoB-26" value="date_born" style="text;align=left;verticalAlign=top;spacingLeft=4;spacingRight=4;overflow=hidden;rotatable=0;points=[[0,0.5],[1,0.5]];portConstraint=eastwest;" vertex="1" parent="BI7n9oEjIv4drbfOqCoB-23">
          <mxGeometry y="78" width="160" height="26" as="geometry" />
        </mxCell>
        <mxCell id="BI7n9oEjIv4drbfOqCoB-27" value="date_died" style="text;align=left;verticalAlign=top;spacingLeft=4;spacingRight=4;overflow=hidden;rotatable=0;points=[[0,0.5],[1,0.5]];portConstraint=eastwest;" vertex="1" parent="BI7n9oEjIv4drbfOqCoB-23">
          <mxGeometry y="104" width="160" height="26" as="geometry" />
        </mxCell>
        <mxCell id="BI7n9oEjIv4drbfOqCoB-28" value="country_of_origin" style="text;align=left;verticalAlign=top;spacingLeft=4;spacingRight=4;overflow=hidden;rotatable=0;points=[[0,0.5],[1,0.5]];portConstraint=eastwest;" vertex="1" parent="BI7n9oEjIv4drbfOqCoB-23">
          <mxGeometry y="130" width="160" height="26" as="geometry" />
        </mxCell>
        <mxCell id="BI7n9oEjIv4drbfOqCoB-29" value="epoch" style="text;align=left;verticalAlign=top;spacingLeft=4;spacingRight=4;overflow=hidden;rotatable=0;points=[[0,0.5],[1,0.5]];portConstraint=eastwest;" vertex="1" parent="BI7n9oEjIv4drbfOqCoB-23">
          <mxGeometry y="156" width="160" height="26" as="geometry" />
        </mxCell>
        <mxCell id="BI7n9oEjIv4drbfOqCoB-30" value="main_style" style="text;align=left;verticalAlign=top;spacingLeft=4;spacingRight=4;overflow=hidden;rotatable=0;points=[[0,0.5],[1,0.5]];portConstraint=eastwest;" vertex="1" parent="BI7n9oEjIv4drbfOqCoB-23">
          <mxGeometry y="182" width="160" height="26" as="geometry" />
        </mxCell>
        <mxCell id="BI7n9oEjIv4drbfOqCoB-31" value="description" style="text;align=left;verticalAlign=top;spacingLeft=4;spacingRight=4;overflow=hidden;rotatable=0;points=[[0,0.5],[1,0.5]];portConstraint=eastwest;" vertex="1" parent="BI7n9oEjIv4drbfOqCoB-23">
          <mxGeometry y="208" width="160" height="26" as="geometry" />
        </mxCell>
        <mxCell id="BI7n9oEjIv4drbfOqCoB-32" value="" style="endArrow=none;html=1;rounded=0;exitX=1;exitY=0.5;exitDx=0;exitDy=0;entryX=0;entryY=0.5;entryDx=0;entryDy=0;" edge="1" parent="1" source="BI7n9oEjIv4drbfOqCoB-24" target="BI7n9oEjIv4drbfOqCoB-10">
          <mxGeometry width="50" height="50" relative="1" as="geometry">
            <mxPoint x="392" y="340" as="sourcePoint" />
            <mxPoint x="442" y="290" as="targetPoint" />
          </mxGeometry>
        </mxCell>
        <mxCell id="BI7n9oEjIv4drbfOqCoB-33" value="Painting" style="swimlane;fontStyle=0;align=center;verticalAlign=top;childLayout=stackLayout;horizontal=1;startSize=26;horizontalStack=0;resizeParent=1;resizeLast=0;collapsible=1;marginBottom=0;rounded=0;shadow=0;strokeWidth=1;" vertex="1" parent="1">
          <mxGeometry x="82" y="320" width="160" height="130" as="geometry">
            <mxRectangle x="130" y="380" width="160" height="26" as="alternateBounds" />
          </mxGeometry>
        </mxCell>
        <mxCell id="BI7n9oEjIv4drbfOqCoB-34" value="artobject_ID {FK}" style="text;align=left;verticalAlign=top;spacingLeft=4;spacingRight=4;overflow=hidden;rotatable=0;points=[[0,0.5],[1,0.5]];portConstraint=eastwest;" vertex="1" parent="BI7n9oEjIv4drbfOqCoB-33">
          <mxGeometry y="26" width="160" height="26" as="geometry" />
        </mxCell>
        <mxCell id="BI7n9oEjIv4drbfOqCoB-35" value="types" style="text;align=left;verticalAlign=top;spacingLeft=4;spacingRight=4;overflow=hidden;rotatable=0;points=[[0,0.5],[1,0.5]];portConstraint=eastwest;" vertex="1" parent="BI7n9oEjIv4drbfOqCoB-33">
          <mxGeometry y="52" width="160" height="26" as="geometry" />
        </mxCell>
        <mxCell id="BI7n9oEjIv4drbfOqCoB-36" value="material" style="text;align=left;verticalAlign=top;spacingLeft=4;spacingRight=4;overflow=hidden;rotatable=0;points=[[0,0.5],[1,0.5]];portConstraint=eastwest;" vertex="1" parent="BI7n9oEjIv4drbfOqCoB-33">
          <mxGeometry y="78" width="160" height="26" as="geometry" />
        </mxCell>
        <mxCell id="BI7n9oEjIv4drbfOqCoB-37" value="style" style="text;align=left;verticalAlign=top;spacingLeft=4;spacingRight=4;overflow=hidden;rotatable=0;points=[[0,0.5],[1,0.5]];portConstraint=eastwest;" vertex="1" parent="BI7n9oEjIv4drbfOqCoB-33">
          <mxGeometry y="104" width="160" height="26" as="geometry" />
        </mxCell>
        <mxCell id="BI7n9oEjIv4drbfOqCoB-38" value="Sculpture" style="swimlane;fontStyle=0;align=center;verticalAlign=top;childLayout=stackLayout;horizontal=1;startSize=26;horizontalStack=0;resizeParent=1;resizeLast=0;collapsible=1;marginBottom=0;rounded=0;shadow=0;strokeWidth=1;" vertex="1" parent="1">
          <mxGeometry x="82" y="510" width="160" height="160" as="geometry">
            <mxRectangle x="130" y="380" width="160" height="26" as="alternateBounds" />
          </mxGeometry>
        </mxCell>
        <mxCell id="BI7n9oEjIv4drbfOqCoB-39" value="artobject_ID {FK}" style="text;align=left;verticalAlign=top;spacingLeft=4;spacingRight=4;overflow=hidden;rotatable=0;points=[[0,0.5],[1,0.5]];portConstraint=eastwest;" vertex="1" parent="BI7n9oEjIv4drbfOqCoB-38">
          <mxGeometry y="26" width="160" height="26" as="geometry" />
        </mxCell>
        <mxCell id="BI7n9oEjIv4drbfOqCoB-40" value="material" style="text;align=left;verticalAlign=top;spacingLeft=4;spacingRight=4;overflow=hidden;rotatable=0;points=[[0,0.5],[1,0.5]];portConstraint=eastwest;" vertex="1" parent="BI7n9oEjIv4drbfOqCoB-38">
          <mxGeometry y="52" width="160" height="26" as="geometry" />
        </mxCell>
        <mxCell id="BI7n9oEjIv4drbfOqCoB-41" value="height" style="text;align=left;verticalAlign=top;spacingLeft=4;spacingRight=4;overflow=hidden;rotatable=0;points=[[0,0.5],[1,0.5]];portConstraint=eastwest;" vertex="1" parent="BI7n9oEjIv4drbfOqCoB-38">
          <mxGeometry y="78" width="160" height="26" as="geometry" />
        </mxCell>
        <mxCell id="BI7n9oEjIv4drbfOqCoB-42" value="weight" style="text;align=left;verticalAlign=top;spacingLeft=4;spacingRight=4;overflow=hidden;rotatable=0;points=[[0,0.5],[1,0.5]];portConstraint=eastwest;" vertex="1" parent="BI7n9oEjIv4drbfOqCoB-38">
          <mxGeometry y="104" width="160" height="26" as="geometry" />
        </mxCell>
        <mxCell id="BI7n9oEjIv4drbfOqCoB-43" value="style" style="text;align=left;verticalAlign=top;spacingLeft=4;spacingRight=4;overflow=hidden;rotatable=0;points=[[0,0.5],[1,0.5]];portConstraint=eastwest;" vertex="1" parent="BI7n9oEjIv4drbfOqCoB-38">
          <mxGeometry y="130" width="160" height="26" as="geometry" />
        </mxCell>
        <mxCell id="BI7n9oEjIv4drbfOqCoB-44" value="Others" style="swimlane;fontStyle=0;align=center;verticalAlign=top;childLayout=stackLayout;horizontal=1;startSize=26;horizontalStack=0;resizeParent=1;resizeLast=0;collapsible=1;marginBottom=0;rounded=0;shadow=0;strokeWidth=1;" vertex="1" parent="1">
          <mxGeometry x="202" y="920" width="160" height="110" as="geometry">
            <mxRectangle x="130" y="380" width="160" height="26" as="alternateBounds" />
          </mxGeometry>
        </mxCell>
        <mxCell id="BI7n9oEjIv4drbfOqCoB-45" value="artobject_ID {FK}" style="text;align=left;verticalAlign=top;spacingLeft=4;spacingRight=4;overflow=hidden;rotatable=0;points=[[0,0.5],[1,0.5]];portConstraint=eastwest;" vertex="1" parent="BI7n9oEjIv4drbfOqCoB-44">
          <mxGeometry y="26" width="160" height="26" as="geometry" />
        </mxCell>
        <mxCell id="BI7n9oEjIv4drbfOqCoB-46" value="type" style="text;align=left;verticalAlign=top;spacingLeft=4;spacingRight=4;overflow=hidden;rotatable=0;points=[[0,0.5],[1,0.5]];portConstraint=eastwest;" vertex="1" parent="BI7n9oEjIv4drbfOqCoB-44">
          <mxGeometry y="52" width="160" height="26" as="geometry" />
        </mxCell>
        <mxCell id="BI7n9oEjIv4drbfOqCoB-47" value="style" style="text;align=left;verticalAlign=top;spacingLeft=4;spacingRight=4;overflow=hidden;rotatable=0;points=[[0,0.5],[1,0.5]];portConstraint=eastwest;" vertex="1" parent="BI7n9oEjIv4drbfOqCoB-44">
          <mxGeometry y="78" width="160" height="26" as="geometry" />
        </mxCell>
        <mxCell id="BI7n9oEjIv4drbfOqCoB-48" value="" style="endArrow=none;html=1;rounded=0;entryX=0;entryY=0.5;entryDx=0;entryDy=0;exitX=1;exitY=0.5;exitDx=0;exitDy=0;" edge="1" parent="1" source="BI7n9oEjIv4drbfOqCoB-2" target="BI7n9oEjIv4drbfOqCoB-20">
          <mxGeometry width="50" height="50" relative="1" as="geometry">
            <mxPoint x="302" y="380" as="sourcePoint" />
            <mxPoint x="352" y="330" as="targetPoint" />
          </mxGeometry>
        </mxCell>
        <mxCell id="BI7n9oEjIv4drbfOqCoB-49" value="Borrow From ?" style="edgeLabel;html=1;align=center;verticalAlign=middle;resizable=0;points=[];" vertex="1" connectable="0" parent="BI7n9oEjIv4drbfOqCoB-48">
          <mxGeometry x="-0.0531" y="-1" relative="1" as="geometry">
            <mxPoint as="offset" />
          </mxGeometry>
        </mxCell>
        <mxCell id="BI7n9oEjIv4drbfOqCoB-50" value="" style="endArrow=none;html=1;rounded=0;entryX=0;entryY=0.5;entryDx=0;entryDy=0;exitX=1;exitY=0;exitDx=0;exitDy=0;" edge="1" parent="1" source="BI7n9oEjIv4drbfOqCoB-33" target="BI7n9oEjIv4drbfOqCoB-13">
          <mxGeometry width="50" height="50" relative="1" as="geometry">
            <mxPoint x="302" y="380" as="sourcePoint" />
            <mxPoint x="352" y="330" as="targetPoint" />
          </mxGeometry>
        </mxCell>
        <mxCell id="BI7n9oEjIv4drbfOqCoB-51" value="" style="endArrow=none;html=1;rounded=0;entryX=0;entryY=0.5;entryDx=0;entryDy=0;exitX=1;exitY=0;exitDx=0;exitDy=0;" edge="1" parent="1" source="BI7n9oEjIv4drbfOqCoB-38" target="BI7n9oEjIv4drbfOqCoB-13">
          <mxGeometry width="50" height="50" relative="1" as="geometry">
            <mxPoint x="292" y="330" as="sourcePoint" />
            <mxPoint x="422" y="233" as="targetPoint" />
          </mxGeometry>
        </mxCell>
        <mxCell id="BI7n9oEjIv4drbfOqCoB-52" value="Statue" style="swimlane;fontStyle=0;align=center;verticalAlign=top;childLayout=stackLayout;horizontal=1;startSize=26;horizontalStack=0;resizeParent=1;resizeLast=0;collapsible=1;marginBottom=0;rounded=0;shadow=0;strokeWidth=1;" vertex="1" parent="1">
          <mxGeometry x="82" y="720" width="160" height="160" as="geometry">
            <mxRectangle x="130" y="380" width="160" height="26" as="alternateBounds" />
          </mxGeometry>
        </mxCell>
        <mxCell id="BI7n9oEjIv4drbfOqCoB-53" value="artobject_ID {FK}" style="text;align=left;verticalAlign=top;spacingLeft=4;spacingRight=4;overflow=hidden;rotatable=0;points=[[0,0.5],[1,0.5]];portConstraint=eastwest;" vertex="1" parent="BI7n9oEjIv4drbfOqCoB-52">
          <mxGeometry y="26" width="160" height="26" as="geometry" />
        </mxCell>
        <mxCell id="BI7n9oEjIv4drbfOqCoB-54" value="material" style="text;align=left;verticalAlign=top;spacingLeft=4;spacingRight=4;overflow=hidden;rotatable=0;points=[[0,0.5],[1,0.5]];portConstraint=eastwest;" vertex="1" parent="BI7n9oEjIv4drbfOqCoB-52">
          <mxGeometry y="52" width="160" height="26" as="geometry" />
        </mxCell>
        <mxCell id="BI7n9oEjIv4drbfOqCoB-55" value="height" style="text;align=left;verticalAlign=top;spacingLeft=4;spacingRight=4;overflow=hidden;rotatable=0;points=[[0,0.5],[1,0.5]];portConstraint=eastwest;" vertex="1" parent="BI7n9oEjIv4drbfOqCoB-52">
          <mxGeometry y="78" width="160" height="26" as="geometry" />
        </mxCell>
        <mxCell id="BI7n9oEjIv4drbfOqCoB-56" value="weight" style="text;align=left;verticalAlign=top;spacingLeft=4;spacingRight=4;overflow=hidden;rotatable=0;points=[[0,0.5],[1,0.5]];portConstraint=eastwest;" vertex="1" parent="BI7n9oEjIv4drbfOqCoB-52">
          <mxGeometry y="104" width="160" height="26" as="geometry" />
        </mxCell>
        <mxCell id="BI7n9oEjIv4drbfOqCoB-57" value="style" style="text;align=left;verticalAlign=top;spacingLeft=4;spacingRight=4;overflow=hidden;rotatable=0;points=[[0,0.5],[1,0.5]];portConstraint=eastwest;" vertex="1" parent="BI7n9oEjIv4drbfOqCoB-52">
          <mxGeometry y="130" width="160" height="26" as="geometry" />
        </mxCell>
        <mxCell id="BI7n9oEjIv4drbfOqCoB-58" value="" style="endArrow=none;html=1;rounded=0;entryX=0;entryY=0.5;entryDx=0;entryDy=0;exitX=1;exitY=0;exitDx=0;exitDy=0;" edge="1" parent="1" source="BI7n9oEjIv4drbfOqCoB-52" target="BI7n9oEjIv4drbfOqCoB-13">
          <mxGeometry width="50" height="50" relative="1" as="geometry">
            <mxPoint x="292" y="530" as="sourcePoint" />
            <mxPoint x="492" y="233" as="targetPoint" />
          </mxGeometry>
        </mxCell>
        <mxCell id="BI7n9oEjIv4drbfOqCoB-59" value="" style="endArrow=none;html=1;rounded=0;entryX=0;entryY=0.5;entryDx=0;entryDy=0;exitX=0.5;exitY=0;exitDx=0;exitDy=0;" edge="1" parent="1" source="BI7n9oEjIv4drbfOqCoB-44" target="BI7n9oEjIv4drbfOqCoB-13">
          <mxGeometry width="50" height="50" relative="1" as="geometry">
            <mxPoint x="292" y="770" as="sourcePoint" />
            <mxPoint x="492" y="233" as="targetPoint" />
          </mxGeometry>
        </mxCell>
        <mxCell id="BI7n9oEjIv4drbfOqCoB-60" value="Exhibition" style="swimlane;fontStyle=0;align=center;verticalAlign=top;childLayout=stackLayout;horizontal=1;startSize=26;horizontalStack=0;resizeParent=1;resizeLast=0;collapsible=1;marginBottom=0;rounded=0;shadow=0;strokeWidth=1;" vertex="1" parent="1">
          <mxGeometry x="1162" y="440" width="160" height="182" as="geometry">
            <mxRectangle x="130" y="380" width="160" height="26" as="alternateBounds" />
          </mxGeometry>
        </mxCell>
        <mxCell id="BI7n9oEjIv4drbfOqCoB-61" value="exhibition_ID {PK}" style="text;align=left;verticalAlign=top;spacingLeft=4;spacingRight=4;overflow=hidden;rotatable=0;points=[[0,0.5],[1,0.5]];portConstraint=eastwest;" vertex="1" parent="BI7n9oEjIv4drbfOqCoB-60">
          <mxGeometry y="26" width="160" height="26" as="geometry" />
        </mxCell>
        <mxCell id="BI7n9oEjIv4drbfOqCoB-62" value="exhibition_name" style="text;align=left;verticalAlign=top;spacingLeft=4;spacingRight=4;overflow=hidden;rotatable=0;points=[[0,0.5],[1,0.5]];portConstraint=eastwest;" vertex="1" parent="BI7n9oEjIv4drbfOqCoB-60">
          <mxGeometry y="52" width="160" height="26" as="geometry" />
        </mxCell>
        <mxCell id="BI7n9oEjIv4drbfOqCoB-63" value="category (regular/featured)" style="text;align=left;verticalAlign=top;spacingLeft=4;spacingRight=4;overflow=hidden;rotatable=0;points=[[0,0.5],[1,0.5]];portConstraint=eastwest;" vertex="1" parent="BI7n9oEjIv4drbfOqCoB-60">
          <mxGeometry y="78" width="160" height="26" as="geometry" />
        </mxCell>
        <mxCell id="BI7n9oEjIv4drbfOqCoB-64" value="type" style="text;align=left;verticalAlign=top;spacingLeft=4;spacingRight=4;overflow=hidden;rotatable=0;points=[[0,0.5],[1,0.5]];portConstraint=eastwest;" vertex="1" parent="BI7n9oEjIv4drbfOqCoB-60">
          <mxGeometry y="104" width="160" height="26" as="geometry" />
        </mxCell>
        <mxCell id="BI7n9oEjIv4drbfOqCoB-65" value="start_period_date" style="text;align=left;verticalAlign=top;spacingLeft=4;spacingRight=4;overflow=hidden;rotatable=0;points=[[0,0.5],[1,0.5]];portConstraint=eastwest;" vertex="1" parent="BI7n9oEjIv4drbfOqCoB-60">
          <mxGeometry y="130" width="160" height="26" as="geometry" />
        </mxCell>
        <mxCell id="BI7n9oEjIv4drbfOqCoB-66" value="end_period_date" style="text;align=left;verticalAlign=top;spacingLeft=4;spacingRight=4;overflow=hidden;rotatable=0;points=[[0,0.5],[1,0.5]];portConstraint=eastwest;" vertex="1" parent="BI7n9oEjIv4drbfOqCoB-60">
          <mxGeometry y="156" width="160" height="26" as="geometry" />
        </mxCell>
        <mxCell id="BI7n9oEjIv4drbfOqCoB-67" value="Mimic" style="swimlane;fontStyle=0;align=center;verticalAlign=top;childLayout=stackLayout;horizontal=1;startSize=26;horizontalStack=0;resizeParent=1;resizeLast=0;collapsible=1;marginBottom=0;rounded=0;shadow=0;strokeWidth=1;" vertex="1" parent="1">
          <mxGeometry x="922" y="116" width="160" height="130" as="geometry">
            <mxRectangle x="130" y="380" width="160" height="26" as="alternateBounds" />
          </mxGeometry>
        </mxCell>
        <mxCell id="BI7n9oEjIv4drbfOqCoB-68" value="mimic_ID {PK}" style="text;align=left;verticalAlign=top;spacingLeft=4;spacingRight=4;overflow=hidden;rotatable=0;points=[[0,0.5],[1,0.5]];portConstraint=eastwest;" vertex="1" parent="BI7n9oEjIv4drbfOqCoB-67">
          <mxGeometry y="26" width="160" height="26" as="geometry" />
        </mxCell>
        <mxCell id="BI7n9oEjIv4drbfOqCoB-69" value="artobject_ID {FK}" style="text;align=left;verticalAlign=top;spacingLeft=4;spacingRight=4;overflow=hidden;rotatable=0;points=[[0,0.5],[1,0.5]];portConstraint=eastwest;" vertex="1" parent="BI7n9oEjIv4drbfOqCoB-67">
          <mxGeometry y="52" width="160" height="26" as="geometry" />
        </mxCell>
        <mxCell id="BI7n9oEjIv4drbfOqCoB-70" value="mimic_name" style="text;align=left;verticalAlign=top;spacingLeft=4;spacingRight=4;overflow=hidden;rotatable=0;points=[[0,0.5],[1,0.5]];portConstraint=eastwest;" vertex="1" parent="BI7n9oEjIv4drbfOqCoB-67">
          <mxGeometry y="78" width="160" height="26" as="geometry" />
        </mxCell>
        <mxCell id="BI7n9oEjIv4drbfOqCoB-71" value="price" style="text;align=left;verticalAlign=top;spacingLeft=4;spacingRight=4;overflow=hidden;rotatable=0;points=[[0,0.5],[1,0.5]];portConstraint=eastwest;" vertex="1" parent="BI7n9oEjIv4drbfOqCoB-67">
          <mxGeometry y="104" width="160" height="26" as="geometry" />
        </mxCell>
        <mxCell id="BI7n9oEjIv4drbfOqCoB-72" value="LoyalVisitor" style="swimlane;fontStyle=0;align=center;verticalAlign=top;childLayout=stackLayout;horizontal=1;startSize=26;horizontalStack=0;resizeParent=1;resizeLast=0;collapsible=1;marginBottom=0;rounded=0;shadow=0;strokeWidth=1;" vertex="1" parent="1">
          <mxGeometry x="1402" y="200" width="160" height="160" as="geometry">
            <mxRectangle x="130" y="380" width="160" height="26" as="alternateBounds" />
          </mxGeometry>
        </mxCell>
        <mxCell id="BI7n9oEjIv4drbfOqCoB-73" value="loyaltymember_No {PK}" style="text;align=left;verticalAlign=top;spacingLeft=4;spacingRight=4;overflow=hidden;rotatable=0;points=[[0,0.5],[1,0.5]];portConstraint=eastwest;" vertex="1" parent="BI7n9oEjIv4drbfOqCoB-72">
          <mxGeometry y="26" width="160" height="26" as="geometry" />
        </mxCell>
        <mxCell id="BI7n9oEjIv4drbfOqCoB-74" value="loyaltymember_fname" style="text;align=left;verticalAlign=top;spacingLeft=4;spacingRight=4;overflow=hidden;rotatable=0;points=[[0,0.5],[1,0.5]];portConstraint=eastwest;" vertex="1" parent="BI7n9oEjIv4drbfOqCoB-72">
          <mxGeometry y="52" width="160" height="26" as="geometry" />
        </mxCell>
        <mxCell id="BI7n9oEjIv4drbfOqCoB-75" value="status" style="text;align=left;verticalAlign=top;spacingLeft=4;spacingRight=4;overflow=hidden;rotatable=0;points=[[0,0.5],[1,0.5]];portConstraint=eastwest;" vertex="1" parent="BI7n9oEjIv4drbfOqCoB-72">
          <mxGeometry y="78" width="160" height="26" as="geometry" />
        </mxCell>
        <mxCell id="BI7n9oEjIv4drbfOqCoB-76" value="preference" style="text;align=left;verticalAlign=top;spacingLeft=4;spacingRight=4;overflow=hidden;rotatable=0;points=[[0,0.5],[1,0.5]];portConstraint=eastwest;" vertex="1" parent="BI7n9oEjIv4drbfOqCoB-72">
          <mxGeometry y="104" width="160" height="26" as="geometry" />
        </mxCell>
        <mxCell id="BI7n9oEjIv4drbfOqCoB-77" value="exhibition_ID {FK}" style="text;align=left;verticalAlign=top;spacingLeft=4;spacingRight=4;overflow=hidden;rotatable=0;points=[[0,0.5],[1,0.5]];portConstraint=eastwest;" vertex="1" parent="BI7n9oEjIv4drbfOqCoB-72">
          <mxGeometry y="130" width="160" height="26" as="geometry" />
        </mxCell>
        <mxCell id="BI7n9oEjIv4drbfOqCoB-78" value="Staff" style="swimlane;fontStyle=0;align=center;verticalAlign=top;childLayout=stackLayout;horizontal=1;startSize=26;horizontalStack=0;resizeParent=1;resizeLast=0;collapsible=1;marginBottom=0;rounded=0;shadow=0;strokeWidth=1;" vertex="1" parent="1">
          <mxGeometry x="1152" y="746" width="160" height="130" as="geometry">
            <mxRectangle x="130" y="380" width="160" height="26" as="alternateBounds" />
          </mxGeometry>
        </mxCell>
        <mxCell id="BI7n9oEjIv4drbfOqCoB-79" value="staff_ID {PK}" style="text;align=left;verticalAlign=top;spacingLeft=4;spacingRight=4;overflow=hidden;rotatable=0;points=[[0,0.5],[1,0.5]];portConstraint=eastwest;" vertex="1" parent="BI7n9oEjIv4drbfOqCoB-78">
          <mxGeometry y="26" width="160" height="26" as="geometry" />
        </mxCell>
        <mxCell id="BI7n9oEjIv4drbfOqCoB-80" value="staff_fname" style="text;align=left;verticalAlign=top;spacingLeft=4;spacingRight=4;overflow=hidden;rotatable=0;points=[[0,0.5],[1,0.5]];portConstraint=eastwest;" vertex="1" parent="BI7n9oEjIv4drbfOqCoB-78">
          <mxGeometry y="52" width="160" height="26" as="geometry" />
        </mxCell>
        <mxCell id="BI7n9oEjIv4drbfOqCoB-81" value="staff_lname" style="text;align=left;verticalAlign=top;spacingLeft=4;spacingRight=4;overflow=hidden;rotatable=0;points=[[0,0.5],[1,0.5]];portConstraint=eastwest;" vertex="1" parent="BI7n9oEjIv4drbfOqCoB-78">
          <mxGeometry y="78" width="160" height="26" as="geometry" />
        </mxCell>
        <mxCell id="BI7n9oEjIv4drbfOqCoB-82" value="types" style="text;align=left;verticalAlign=top;spacingLeft=4;spacingRight=4;overflow=hidden;rotatable=0;points=[[0,0.5],[1,0.5]];portConstraint=eastwest;" vertex="1" parent="BI7n9oEjIv4drbfOqCoB-78">
          <mxGeometry y="104" width="160" height="26" as="geometry" />
        </mxCell>
        <mxCell id="BI7n9oEjIv4drbfOqCoB-83" value="Maintainance" style="swimlane;fontStyle=0;align=center;verticalAlign=top;childLayout=stackLayout;horizontal=1;startSize=26;horizontalStack=0;resizeParent=1;resizeLast=0;collapsible=1;marginBottom=0;rounded=0;shadow=0;strokeWidth=1;" vertex="1" parent="1">
          <mxGeometry x="880" y="720" width="160" height="104" as="geometry">
            <mxRectangle x="130" y="380" width="160" height="26" as="alternateBounds" />
          </mxGeometry>
        </mxCell>
        <mxCell id="BI7n9oEjIv4drbfOqCoB-84" value="staff_ID {PK}" style="text;align=left;verticalAlign=top;spacingLeft=4;spacingRight=4;overflow=hidden;rotatable=0;points=[[0,0.5],[1,0.5]];portConstraint=eastwest;" vertex="1" parent="BI7n9oEjIv4drbfOqCoB-83">
          <mxGeometry y="26" width="160" height="26" as="geometry" />
        </mxCell>
        <mxCell id="BI7n9oEjIv4drbfOqCoB-85" value="artobject_ID {FK} Max20" style="text;align=left;verticalAlign=top;spacingLeft=4;spacingRight=4;overflow=hidden;rotatable=0;points=[[0,0.5],[1,0.5]];portConstraint=eastwest;" vertex="1" parent="BI7n9oEjIv4drbfOqCoB-83">
          <mxGeometry y="52" width="160" height="26" as="geometry" />
        </mxCell>
        <mxCell id="BI7n9oEjIv4drbfOqCoB-86" value="maintainance_date" style="text;align=left;verticalAlign=top;spacingLeft=4;spacingRight=4;overflow=hidden;rotatable=0;points=[[0,0.5],[1,0.5]];portConstraint=eastwest;" vertex="1" parent="BI7n9oEjIv4drbfOqCoB-83">
          <mxGeometry y="78" width="160" height="26" as="geometry" />
        </mxCell>
        <mxCell id="BI7n9oEjIv4drbfOqCoB-87" value="Allocation" style="swimlane;fontStyle=0;align=center;verticalAlign=top;childLayout=stackLayout;horizontal=1;startSize=26;horizontalStack=0;resizeParent=1;resizeLast=0;collapsible=1;marginBottom=0;rounded=0;shadow=0;strokeWidth=1;" vertex="1" parent="1">
          <mxGeometry x="1382" y="680" width="160" height="104" as="geometry">
            <mxRectangle x="130" y="380" width="160" height="26" as="alternateBounds" />
          </mxGeometry>
        </mxCell>
        <mxCell id="BI7n9oEjIv4drbfOqCoB-88" value="staff_ID {PK}" style="text;align=left;verticalAlign=top;spacingLeft=4;spacingRight=4;overflow=hidden;rotatable=0;points=[[0,0.5],[1,0.5]];portConstraint=eastwest;" vertex="1" parent="BI7n9oEjIv4drbfOqCoB-87">
          <mxGeometry y="26" width="160" height="26" as="geometry" />
        </mxCell>
        <mxCell id="BI7n9oEjIv4drbfOqCoB-89" value="exhibition_ID {FK}" style="text;align=left;verticalAlign=top;spacingLeft=4;spacingRight=4;overflow=hidden;rotatable=0;points=[[0,0.5],[1,0.5]];portConstraint=eastwest;" vertex="1" parent="BI7n9oEjIv4drbfOqCoB-87">
          <mxGeometry y="52" width="160" height="26" as="geometry" />
        </mxCell>
        <mxCell id="BI7n9oEjIv4drbfOqCoB-90" value="allocation_date" style="text;align=left;verticalAlign=top;spacingLeft=4;spacingRight=4;overflow=hidden;rotatable=0;points=[[0,0.5],[1,0.5]];portConstraint=eastwest;" vertex="1" parent="BI7n9oEjIv4drbfOqCoB-87">
          <mxGeometry y="78" width="160" height="26" as="geometry" />
        </mxCell>
        <mxCell id="BI7n9oEjIv4drbfOqCoB-91" value="" style="endArrow=none;html=1;rounded=0;exitX=0;exitY=0;exitDx=0;exitDy=0;entryX=1;entryY=0;entryDx=0;entryDy=0;" edge="1" parent="1" source="BI7n9oEjIv4drbfOqCoB-67" target="BI7n9oEjIv4drbfOqCoB-8">
          <mxGeometry width="50" height="50" relative="1" as="geometry">
            <mxPoint x="772" y="330" as="sourcePoint" />
            <mxPoint x="652" y="155" as="targetPoint" />
          </mxGeometry>
        </mxCell>
        <mxCell id="BI7n9oEjIv4drbfOqCoB-92" value="" style="endArrow=none;html=1;rounded=0;exitX=0.5;exitY=0;exitDx=0;exitDy=0;entryX=1;entryY=0.5;entryDx=0;entryDy=0;" edge="1" parent="1" source="BI7n9oEjIv4drbfOqCoB-83" target="BI7n9oEjIv4drbfOqCoB-9">
          <mxGeometry width="50" height="50" relative="1" as="geometry">
            <mxPoint x="932" y="130" as="sourcePoint" />
            <mxPoint x="652" y="129" as="targetPoint" />
          </mxGeometry>
        </mxCell>
        <mxCell id="BI7n9oEjIv4drbfOqCoB-93" value="Maintainance" style="edgeLabel;html=1;align=center;verticalAlign=middle;resizable=0;points=[];" vertex="1" connectable="0" parent="BI7n9oEjIv4drbfOqCoB-92">
          <mxGeometry x="-0.1547" y="-1" relative="1" as="geometry">
            <mxPoint x="30" y="108" as="offset" />
          </mxGeometry>
        </mxCell>
        <mxCell id="BI7n9oEjIv4drbfOqCoB-94" value="" style="endArrow=none;html=1;rounded=0;entryX=1;entryY=0.5;entryDx=0;entryDy=0;exitX=0;exitY=0.5;exitDx=0;exitDy=0;" edge="1" parent="1" source="BI7n9oEjIv4drbfOqCoB-79" target="BI7n9oEjIv4drbfOqCoB-84">
          <mxGeometry width="50" height="50" relative="1" as="geometry">
            <mxPoint x="1123" y="917" as="sourcePoint" />
            <mxPoint x="792" y="249" as="targetPoint" />
          </mxGeometry>
        </mxCell>
        <mxCell id="BI7n9oEjIv4drbfOqCoB-95" value="" style="endArrow=none;html=1;rounded=0;entryX=0;entryY=0.5;entryDx=0;entryDy=0;exitX=1;exitY=0.5;exitDx=0;exitDy=0;" edge="1" parent="1" source="BI7n9oEjIv4drbfOqCoB-79" target="BI7n9oEjIv4drbfOqCoB-88">
          <mxGeometry width="50" height="50" relative="1" as="geometry">
            <mxPoint x="1342" y="400" as="sourcePoint" />
            <mxPoint x="1232" y="450" as="targetPoint" />
          </mxGeometry>
        </mxCell>
        <mxCell id="BI7n9oEjIv4drbfOqCoB-96" value="" style="endArrow=none;html=1;rounded=0;entryX=0.5;entryY=0;entryDx=0;entryDy=0;exitX=1;exitY=0.5;exitDx=0;exitDy=0;" edge="1" parent="1" source="BI7n9oEjIv4drbfOqCoB-61" target="BI7n9oEjIv4drbfOqCoB-87">
          <mxGeometry width="50" height="50" relative="1" as="geometry">
            <mxPoint x="1392" y="369" as="sourcePoint" />
            <mxPoint x="1312" y="606" as="targetPoint" />
          </mxGeometry>
        </mxCell>
        <mxCell id="BI7n9oEjIv4drbfOqCoB-97" value="Allocation" style="edgeLabel;html=1;align=center;verticalAlign=middle;resizable=0;points=[];" vertex="1" connectable="0" parent="BI7n9oEjIv4drbfOqCoB-96">
          <mxGeometry x="0.091" relative="1" as="geometry">
            <mxPoint y="3" as="offset" />
          </mxGeometry>
        </mxCell>
        <mxCell id="BI7n9oEjIv4drbfOqCoB-98" value="" style="endArrow=none;html=1;rounded=0;exitX=0;exitY=0;exitDx=0;exitDy=0;entryX=1;entryY=0;entryDx=0;entryDy=0;" edge="1" parent="1" source="BI7n9oEjIv4drbfOqCoB-60" target="BI7n9oEjIv4drbfOqCoB-8">
          <mxGeometry width="50" height="50" relative="1" as="geometry">
            <mxPoint x="1113" y="315" as="sourcePoint" />
            <mxPoint x="652" y="129" as="targetPoint" />
          </mxGeometry>
        </mxCell>
        <mxCell id="BI7n9oEjIv4drbfOqCoB-99" value="Show" style="edgeLabel;html=1;align=center;verticalAlign=middle;resizable=0;points=[];" vertex="1" connectable="0" parent="BI7n9oEjIv4drbfOqCoB-98">
          <mxGeometry x="-0.2696" y="-4" relative="1" as="geometry">
            <mxPoint x="25" y="19" as="offset" />
          </mxGeometry>
        </mxCell>
        <mxCell id="BI7n9oEjIv4drbfOqCoB-100" value="ExhibitionShow" style="swimlane;fontStyle=0;align=center;verticalAlign=top;childLayout=stackLayout;horizontal=1;startSize=26;horizontalStack=0;resizeParent=1;resizeLast=0;collapsible=1;marginBottom=0;rounded=0;shadow=0;strokeWidth=1;" vertex="1" parent="1">
          <mxGeometry x="972" y="440" width="140" height="130" as="geometry">
            <mxRectangle x="130" y="380" width="160" height="26" as="alternateBounds" />
          </mxGeometry>
        </mxCell>
        <mxCell id="BI7n9oEjIv4drbfOqCoB-101" value="exhibition_ID {FK}" style="text;align=left;verticalAlign=top;spacingLeft=4;spacingRight=4;overflow=hidden;rotatable=0;points=[[0,0.5],[1,0.5]];portConstraint=eastwest;" vertex="1" parent="BI7n9oEjIv4drbfOqCoB-100">
          <mxGeometry y="26" width="140" height="26" as="geometry" />
        </mxCell>
        <mxCell id="BI7n9oEjIv4drbfOqCoB-102" value="artobject_ID {FK}" style="text;align=left;verticalAlign=top;spacingLeft=4;spacingRight=4;overflow=hidden;rotatable=0;points=[[0,0.5],[1,0.5]];portConstraint=eastwest;" vertex="1" parent="BI7n9oEjIv4drbfOqCoB-100">
          <mxGeometry y="52" width="140" height="26" as="geometry" />
        </mxCell>
        <mxCell id="BI7n9oEjIv4drbfOqCoB-103" value="start_date_show" style="text;align=left;verticalAlign=top;spacingLeft=4;spacingRight=4;overflow=hidden;rotatable=0;points=[[0,0.5],[1,0.5]];portConstraint=eastwest;" vertex="1" parent="BI7n9oEjIv4drbfOqCoB-100">
          <mxGeometry y="78" width="140" height="26" as="geometry" />
        </mxCell>
        <mxCell id="BI7n9oEjIv4drbfOqCoB-104" value="end_date_show" style="text;align=left;verticalAlign=top;spacingLeft=4;spacingRight=4;overflow=hidden;rotatable=0;points=[[0,0.5],[1,0.5]];portConstraint=eastwest;" vertex="1" parent="BI7n9oEjIv4drbfOqCoB-100">
          <mxGeometry y="104" width="140" height="26" as="geometry" />
        </mxCell>
        <mxCell id="BI7n9oEjIv4drbfOqCoB-105" value="" style="endArrow=none;dashed=1;html=1;rounded=0;entryX=0.5;entryY=0;entryDx=0;entryDy=0;" edge="1" parent="1" target="BI7n9oEjIv4drbfOqCoB-100">
          <mxGeometry width="50" height="50" relative="1" as="geometry">
            <mxPoint x="1042" y="380" as="sourcePoint" />
            <mxPoint x="1172" y="700" as="targetPoint" />
          </mxGeometry>
        </mxCell>
        <mxCell id="BI7n9oEjIv4drbfOqCoB-106" value="ExhibitionSell" style="swimlane;fontStyle=0;align=center;verticalAlign=top;childLayout=stackLayout;horizontal=1;startSize=26;horizontalStack=0;resizeParent=1;resizeLast=0;collapsible=1;marginBottom=0;rounded=0;shadow=0;strokeWidth=1;" vertex="1" parent="1">
          <mxGeometry x="1172" y="240" width="140" height="130" as="geometry">
            <mxRectangle x="130" y="380" width="160" height="26" as="alternateBounds" />
          </mxGeometry>
        </mxCell>
        <mxCell id="BI7n9oEjIv4drbfOqCoB-107" value="exhibition_ID {FK}" style="text;align=left;verticalAlign=top;spacingLeft=4;spacingRight=4;overflow=hidden;rotatable=0;points=[[0,0.5],[1,0.5]];portConstraint=eastwest;" vertex="1" parent="BI7n9oEjIv4drbfOqCoB-106">
          <mxGeometry y="26" width="140" height="26" as="geometry" />
        </mxCell>
        <mxCell id="BI7n9oEjIv4drbfOqCoB-108" value="mimic_ID {FK}" style="text;align=left;verticalAlign=top;spacingLeft=4;spacingRight=4;overflow=hidden;rotatable=0;points=[[0,0.5],[1,0.5]];portConstraint=eastwest;" vertex="1" parent="BI7n9oEjIv4drbfOqCoB-106">
          <mxGeometry y="52" width="140" height="26" as="geometry" />
        </mxCell>
        <mxCell id="BI7n9oEjIv4drbfOqCoB-109" value="start_date_sell" style="text;align=left;verticalAlign=top;spacingLeft=4;spacingRight=4;overflow=hidden;rotatable=0;points=[[0,0.5],[1,0.5]];portConstraint=eastwest;" vertex="1" parent="BI7n9oEjIv4drbfOqCoB-106">
          <mxGeometry y="78" width="140" height="26" as="geometry" />
        </mxCell>
        <mxCell id="BI7n9oEjIv4drbfOqCoB-110" value="end_date_sell" style="text;align=left;verticalAlign=top;spacingLeft=4;spacingRight=4;overflow=hidden;rotatable=0;points=[[0,0.5],[1,0.5]];portConstraint=eastwest;" vertex="1" parent="BI7n9oEjIv4drbfOqCoB-106">
          <mxGeometry y="104" width="140" height="26" as="geometry" />
        </mxCell>
        <mxCell id="BI7n9oEjIv4drbfOqCoB-111" value="" style="endArrow=none;html=1;rounded=0;exitX=0;exitY=0;exitDx=0;exitDy=0;entryX=1;entryY=0;entryDx=0;entryDy=0;" edge="1" parent="1" source="BI7n9oEjIv4drbfOqCoB-60" target="BI7n9oEjIv4drbfOqCoB-67">
          <mxGeometry width="50" height="50" relative="1" as="geometry">
            <mxPoint x="1152" y="690" as="sourcePoint" />
            <mxPoint x="652" y="129" as="targetPoint" />
          </mxGeometry>
        </mxCell>
        <mxCell id="BI7n9oEjIv4drbfOqCoB-112" value="Sell" style="edgeLabel;html=1;align=center;verticalAlign=middle;resizable=0;points=[];" vertex="1" connectable="0" parent="BI7n9oEjIv4drbfOqCoB-111">
          <mxGeometry x="-0.4016" y="-1" relative="1" as="geometry">
            <mxPoint x="-7" y="-13" as="offset" />
          </mxGeometry>
        </mxCell>
        <mxCell id="BI7n9oEjIv4drbfOqCoB-113" value="" style="endArrow=none;dashed=1;html=1;rounded=0;exitX=0;exitY=0;exitDx=0;exitDy=0;" edge="1" parent="1" source="BI7n9oEjIv4drbfOqCoB-106">
          <mxGeometry width="50" height="50" relative="1" as="geometry">
            <mxPoint x="1032" y="830" as="sourcePoint" />
            <mxPoint x="1112" y="240" as="targetPoint" />
          </mxGeometry>
        </mxCell>
        <mxCell id="BI7n9oEjIv4drbfOqCoB-114" value="" style="endArrow=none;html=1;rounded=0;entryX=0;entryY=0.5;entryDx=0;entryDy=0;exitX=1;exitY=0.5;exitDx=0;exitDy=0;" edge="1" parent="1" source="BI7n9oEjIv4drbfOqCoB-61" target="BI7n9oEjIv4drbfOqCoB-77">
          <mxGeometry width="50" height="50" relative="1" as="geometry">
            <mxPoint x="1232" y="729" as="sourcePoint" />
            <mxPoint x="1262" y="635" as="targetPoint" />
          </mxGeometry>
        </mxCell>
        <mxCell id="BI7n9oEjIv4drbfOqCoB-115" value="Prefer, Invitation" style="edgeLabel;html=1;align=center;verticalAlign=middle;resizable=0;points=[];" vertex="1" connectable="0" parent="BI7n9oEjIv4drbfOqCoB-114">
          <mxGeometry x="0.0714" y="5" relative="1" as="geometry">
            <mxPoint x="9" y="-7" as="offset" />
          </mxGeometry>
        </mxCell>
        <mxCell id="BI7n9oEjIv4drbfOqCoB-116" value="&lt;font face=&quot;Tahoma&quot; style=&quot;font-size: 18px;&quot;&gt;&lt;font style=&quot;&quot;&gt;CS5097 Group3 :&amp;nbsp;&lt;/font&gt;&lt;/font&gt;&lt;font face=&quot;Tahoma&quot;&gt;&lt;span style=&quot;font-size: 18px;&quot;&gt;EER modelling&lt;br&gt;&lt;/span&gt;&lt;/font&gt;&lt;div&gt;&lt;span style=&quot;background-color: initial; font-size: 18px;&quot;&gt;&lt;font face=&quot;Tahoma&quot;&gt;Conceptual &lt;/font&gt;&lt;/span&gt;&lt;font face=&quot;Tahoma&quot; style=&quot;font-size: 18px;&quot;&gt;&lt;span style=&quot;background-color: initial;&quot;&gt;Model&lt;/span&gt;&lt;/font&gt;&lt;/div&gt;" style="text;html=1;align=left;verticalAlign=middle;whiteSpace=wrap;rounded=0;fontStyle=1" vertex="1" parent="1">
          <mxGeometry x="40" y="40" width="478" height="60" as="geometry" />
        </mxCell>
        <mxCell id="BI7n9oEjIv4drbfOqCoB-117" value="Invitation" style="swimlane;fontStyle=0;align=center;verticalAlign=top;childLayout=stackLayout;horizontal=1;startSize=26;horizontalStack=0;resizeParent=1;resizeLast=0;collapsible=1;marginBottom=0;rounded=0;shadow=0;strokeWidth=1;" vertex="1" parent="1">
          <mxGeometry x="1441" y="400" width="160" height="135" as="geometry">
            <mxRectangle x="130" y="380" width="160" height="26" as="alternateBounds" />
          </mxGeometry>
        </mxCell>
        <mxCell id="BI7n9oEjIv4drbfOqCoB-118" value="Invitation_ID {PK}" style="text;align=left;verticalAlign=top;spacingLeft=4;spacingRight=4;overflow=hidden;rotatable=0;points=[[0,0.5],[1,0.5]];portConstraint=eastwest;" vertex="1" parent="BI7n9oEjIv4drbfOqCoB-117">
          <mxGeometry y="26" width="160" height="26" as="geometry" />
        </mxCell>
        <mxCell id="BI7n9oEjIv4drbfOqCoB-119" value="exhibition_ID {FK}" style="text;align=left;verticalAlign=top;spacingLeft=4;spacingRight=4;overflow=hidden;rotatable=0;points=[[0,0.5],[1,0.5]];portConstraint=eastwest;" vertex="1" parent="BI7n9oEjIv4drbfOqCoB-117">
          <mxGeometry y="52" width="160" height="26" as="geometry" />
        </mxCell>
        <mxCell id="BI7n9oEjIv4drbfOqCoB-120" value="loyaltymember_No {FK}" style="text;align=left;verticalAlign=top;spacingLeft=4;spacingRight=4;overflow=hidden;rotatable=0;points=[[0,0.5],[1,0.5]];portConstraint=eastwest;" vertex="1" parent="BI7n9oEjIv4drbfOqCoB-117">
          <mxGeometry y="78" width="160" height="26" as="geometry" />
        </mxCell>
        <mxCell id="BI7n9oEjIv4drbfOqCoB-121" value="datesent" style="text;align=left;verticalAlign=top;spacingLeft=4;spacingRight=4;overflow=hidden;rotatable=0;points=[[0,0.5],[1,0.5]];portConstraint=eastwest;" vertex="1" parent="BI7n9oEjIv4drbfOqCoB-117">
          <mxGeometry y="104" width="160" height="26" as="geometry" />
        </mxCell>
        <mxCell id="BI7n9oEjIv4drbfOqCoB-122" value="" style="endArrow=none;dashed=1;html=1;rounded=0;entryX=0.003;entryY=0.003;entryDx=0;entryDy=0;entryPerimeter=0;" edge="1" parent="1" target="BI7n9oEjIv4drbfOqCoB-118">
          <mxGeometry width="50" height="50" relative="1" as="geometry">
            <mxPoint x="1353" y="426" as="sourcePoint" />
            <mxPoint x="1055" y="450" as="targetPoint" />
          </mxGeometry>
        </mxCell>
      </root>
    </mxGraphModel>
  </diagram>
</mxfile>
